<svg xmlns="http://www.w3.org/2000/svg" xmlns:xlink="http://www.w3.org/1999/xlink" width="120" zoomAndPan="magnify" viewBox="0 0 90 60" height="80" preserveAspectRatio="xMidYMid meet" version="1.0"><defs><g/></defs><g fill="#ffffff" fill-opacity="1"><g transform="translate(23.699415, 45.852557)"><g><path d="M 7.3125 -4.140625 L 9.515625 -4.140625 C 10.023438 -4.140625 10.46875 -4.296875 10.84375 -4.609375 C 11.226562 -4.929688 11.421875 -5.347656 11.421875 -5.859375 C 11.421875 -6.296875 11.328125 -6.707031 11.140625 -7.09375 C 10.960938 -7.488281 10.597656 -7.6875 10.046875 -7.6875 L 7.3125 -7.6875 Z M 10.28125 0.1875 L 4.90625 0.1875 C 3.707031 0.1875 2.863281 0.0234375 2.375 -0.296875 C 1.882812 -0.628906 1.640625 -1.304688 1.640625 -2.328125 L 1.640625 -17.125 C 1.640625 -18.488281 2.515625 -19.171875 4.265625 -19.171875 L 10.796875 -19.171875 C 12.609375 -19.171875 13.96875 -18.679688 14.875 -17.703125 C 15.789062 -16.722656 16.25 -15.4375 16.25 -13.84375 C 16.25 -13.1875 16.117188 -12.535156 15.859375 -11.890625 C 15.609375 -11.242188 15.15625 -10.664062 14.5 -10.15625 C 15.03125 -9.945312 15.484375 -9.601562 15.859375 -9.125 C 16.242188 -8.644531 16.539062 -8.097656 16.75 -7.484375 C 16.96875 -6.878906 17.078125 -6.265625 17.078125 -5.640625 C 17.078125 -4.585938 16.882812 -3.691406 16.5 -2.953125 C 16.125 -2.222656 15.609375 -1.625 14.953125 -1.15625 C 14.296875 -0.6875 13.566406 -0.34375 12.765625 -0.125 C 11.960938 0.0820312 11.132812 0.1875 10.28125 0.1875 Z M 7.3125 -11.875 L 9.78125 -11.875 C 10.082031 -11.875 10.347656 -12.003906 10.578125 -12.265625 C 10.804688 -12.535156 10.921875 -12.925781 10.921875 -13.4375 C 10.921875 -13.84375 10.820312 -14.179688 10.625 -14.453125 C 10.4375 -14.734375 10.191406 -14.875 9.890625 -14.875 L 7.375 -14.875 Z M 7.3125 -11.875 "/></g></g></g><g fill="#ffffff" fill-opacity="1"><g transform="translate(39.048194, 45.852557)"><g><path d="M 14.03125 -5.625 L 6.15625 -5.484375 C 6.21875 -5.171875 6.382812 -4.910156 6.65625 -4.703125 C 6.9375 -4.503906 7.25 -4.347656 7.59375 -4.234375 C 7.9375 -4.128906 8.242188 -4.078125 8.515625 -4.078125 C 9.378906 -4.097656 10.054688 -4.191406 10.546875 -4.359375 C 11.046875 -4.523438 11.398438 -4.660156 11.609375 -4.765625 C 11.953125 -4.984375 12.351562 -5.046875 12.8125 -4.953125 C 13.28125 -4.867188 13.675781 -4.71875 14 -4.5 C 14.332031 -4.289062 14.613281 -4.007812 14.84375 -3.65625 C 15.070312 -3.300781 15.195312 -2.929688 15.21875 -2.546875 C 15.238281 -2.160156 15.097656 -1.796875 14.796875 -1.453125 C 14.335938 -0.941406 13.585938 -0.519531 12.546875 -0.1875 C 11.503906 0.144531 10.316406 0.320312 8.984375 0.34375 C 7.160156 0.34375 5.628906 0.015625 4.390625 -0.640625 C 3.160156 -1.304688 2.226562 -2.195312 1.59375 -3.3125 C 0.957031 -4.425781 0.640625 -5.664062 0.640625 -7.03125 C 0.640625 -8.675781 0.988281 -10.046875 1.6875 -11.140625 C 2.394531 -12.234375 3.335938 -13.054688 4.515625 -13.609375 C 5.691406 -14.171875 6.972656 -14.460938 8.359375 -14.484375 C 9.359375 -14.492188 10.320312 -14.363281 11.25 -14.09375 C 12.175781 -13.820312 13.003906 -13.390625 13.734375 -12.796875 C 14.460938 -12.203125 15.023438 -11.445312 15.421875 -10.53125 C 15.816406 -9.625 15.988281 -8.546875 15.9375 -7.296875 C 15.9375 -6.847656 15.816406 -6.46875 15.578125 -6.15625 C 15.335938 -5.851562 14.820312 -5.675781 14.03125 -5.625 Z M 6.765625 -9.015625 L 10.203125 -9.046875 C 10.148438 -9.359375 9.9375 -9.601562 9.5625 -9.78125 C 9.195312 -9.957031 8.796875 -10.03125 8.359375 -10 C 7.960938 -9.957031 7.625 -9.859375 7.34375 -9.703125 C 7.0625 -9.546875 6.867188 -9.316406 6.765625 -9.015625 Z M 6.765625 -9.015625 "/></g></g></g><g fill="#ffffff" fill-opacity="1"><g transform="translate(53.31001, 45.852557)"><g/></g></g><g fill="#ffffff" fill-opacity="1"><g transform="translate(56.304501, 45.852557)"><g><path d="M 10.390625 -1.359375 L 10.390625 -9.171875 C 10.390625 -9.554688 10.242188 -9.847656 9.953125 -10.046875 C 9.660156 -10.242188 9.347656 -10.320312 9.015625 -10.28125 C 8.640625 -10.25 8.253906 -10.144531 7.859375 -9.96875 C 7.460938 -9.789062 7.191406 -9.394531 7.046875 -8.78125 L 6.96875 -1.359375 C 6.96875 -0.859375 6.832031 -0.5 6.5625 -0.28125 C 6.289062 -0.0625 5.9375 0.0664062 5.5 0.109375 C 5.070312 0.160156 4.617188 0.1875 4.140625 0.1875 C 3.710938 0.1875 3.300781 0.171875 2.90625 0.140625 C 2.519531 0.117188 2.195312 0.03125 1.9375 -0.125 C 1.6875 -0.289062 1.5625 -0.566406 1.5625 -0.953125 L 1.5625 -12.625 C 1.5625 -13.113281 1.703125 -13.488281 1.984375 -13.75 C 2.265625 -14.007812 2.597656 -14.179688 2.984375 -14.265625 C 3.378906 -14.347656 3.738281 -14.390625 4.0625 -14.390625 C 4.707031 -14.410156 5.257812 -14.335938 5.71875 -14.171875 C 6.1875 -14.003906 6.460938 -13.71875 6.546875 -13.3125 C 6.972656 -13.695312 7.484375 -13.957031 8.078125 -14.09375 C 8.671875 -14.226562 9.148438 -14.328125 9.515625 -14.390625 C 10.253906 -14.460938 10.992188 -14.425781 11.734375 -14.28125 C 12.484375 -14.144531 13.171875 -13.898438 13.796875 -13.546875 C 14.429688 -13.191406 14.929688 -12.734375 15.296875 -12.171875 C 15.671875 -11.609375 15.859375 -10.9375 15.859375 -10.15625 L 15.859375 -1.140625 C 15.816406 -0.734375 15.65625 -0.421875 15.375 -0.203125 C 15.09375 0.00390625 14.738281 0.140625 14.3125 0.203125 C 13.894531 0.265625 13.457031 0.296875 13 0.296875 C 12.59375 0.296875 12.179688 0.238281 11.765625 0.125 C 11.347656 0.0078125 11.003906 -0.164062 10.734375 -0.40625 C 10.472656 -0.644531 10.359375 -0.960938 10.390625 -1.359375 Z M 10.390625 -1.359375 "/></g></g></g><g fill="#ffffff" fill-opacity="1"><g transform="translate(71.096531, 45.852557)"><g><path d="M 14.03125 -5.625 L 6.15625 -5.484375 C 6.21875 -5.171875 6.382812 -4.910156 6.65625 -4.703125 C 6.9375 -4.503906 7.25 -4.347656 7.59375 -4.234375 C 7.9375 -4.128906 8.242188 -4.078125 8.515625 -4.078125 C 9.378906 -4.097656 10.054688 -4.191406 10.546875 -4.359375 C 11.046875 -4.523438 11.398438 -4.660156 11.609375 -4.765625 C 11.953125 -4.984375 12.351562 -5.046875 12.8125 -4.953125 C 13.28125 -4.867188 13.675781 -4.71875 14 -4.5 C 14.332031 -4.289062 14.613281 -4.007812 14.84375 -3.65625 C 15.070312 -3.300781 15.195312 -2.929688 15.21875 -2.546875 C 15.238281 -2.160156 15.097656 -1.796875 14.796875 -1.453125 C 14.335938 -0.941406 13.585938 -0.519531 12.546875 -0.1875 C 11.503906 0.144531 10.316406 0.320312 8.984375 0.34375 C 7.160156 0.34375 5.628906 0.015625 4.390625 -0.640625 C 3.160156 -1.304688 2.226562 -2.195312 1.59375 -3.3125 C 0.957031 -4.425781 0.640625 -5.664062 0.640625 -7.03125 C 0.640625 -8.675781 0.988281 -10.046875 1.6875 -11.140625 C 2.394531 -12.234375 3.335938 -13.054688 4.515625 -13.609375 C 5.691406 -14.171875 6.972656 -14.460938 8.359375 -14.484375 C 9.359375 -14.492188 10.320312 -14.363281 11.25 -14.09375 C 12.175781 -13.820312 13.003906 -13.390625 13.734375 -12.796875 C 14.460938 -12.203125 15.023438 -11.445312 15.421875 -10.53125 C 15.816406 -9.625 15.988281 -8.546875 15.9375 -7.296875 C 15.9375 -6.847656 15.816406 -6.46875 15.578125 -6.15625 C 15.335938 -5.851562 14.820312 -5.675781 14.03125 -5.625 Z M 6.765625 -9.015625 L 10.203125 -9.046875 C 10.148438 -9.359375 9.9375 -9.601562 9.5625 -9.78125 C 9.195312 -9.957031 8.796875 -10.03125 8.359375 -10 C 7.960938 -9.957031 7.625 -9.859375 7.34375 -9.703125 C 7.0625 -9.546875 6.867188 -9.316406 6.765625 -9.015625 Z M 6.765625 -9.015625 "/></g></g></g><path stroke-linecap="butt" transform="matrix(0.537561, -0.884702, 0.884702, 0.537561, -1.716464, 28.977077)" fill="none" stroke-linejoin="miter" d="M 9.33196 13.962117 L 9.32832 11.107611 L 9.284316 11.107857 L 5.88866 11.201882 L 5.844656 11.202128 L 5.843112 14.055369 L 5.887116 14.055123 C 6.159549 14.052955 6.415164 14.052175 6.653268 14.044374 C 6.891371 14.036574 7.132699 14.026813 7.370108 14.010604 L 9.287956 13.962363 Z M 11.757185 17.742748 L 3.935206 17.855014 C 3.244041 17.851107 2.711134 17.795192 2.339016 17.676902 C 1.964939 17.555387 1.702217 17.326473 1.55281 16.993384 C 1.402709 16.651886 1.310733 16.173517 1.276883 15.558277 L 1.190491 4.952166 C 1.190522 4.378154 1.404781 4.040446 1.832573 3.930633 C 2.261631 3.815635 2.805558 3.758886 3.464353 3.760385 C 3.865573 3.75944 4.247445 3.77025 4.604784 3.791553 C 4.967307 3.81412 5.263622 3.916655 5.493728 4.099157 C 5.727058 4.279701 5.845931 4.591605 5.843898 5.038788 L 5.890351 7.447824 L 5.934355 7.447579 C 6.354353 7.44847 6.719978 7.447076 7.038375 7.447887 C 7.351587 7.447432 7.677698 7.43914 8.021893 7.424276 C 8.369312 7.407452 8.787922 7.391525 9.28613 7.375801 L 9.330134 7.375555 C 9.315798 6.894165 9.304484 6.490414 9.296763 6.150709 C 9.291002 5.81423 9.286832 5.414969 9.287477 4.950967 C 9.286408 4.527745 9.386984 4.228205 9.587244 4.049124 C 9.787504 3.870043 10.049649 3.763743 10.371719 3.727 C 10.693788 3.690256 11.030839 3.670902 11.376422 3.672855 C 11.764049 3.671338 12.155024 3.689864 12.552571 3.726473 C 12.950118 3.763082 13.282722 3.874474 13.545198 4.059385 C 13.809634 4.24752 13.940835 4.565179 13.940761 5.015588 L 13.939765 16.081008 C 13.940465 16.438225 13.825031 16.742377 13.588279 16.9922 C 13.357976 17.238104 13.073627 17.424126 12.732006 17.552225 C 12.395569 17.681589 12.070398 17.742294 11.757185 17.742748 Z M 11.757185 17.742748 " stroke="#ffffff" stroke-width="0.843244" stroke-opacity="1" stroke-miterlimit="4"/><path stroke-linecap="butt" transform="matrix(0.815068, -0.638227, 0.638227, 0.815068, 9.030452, 12.423148)" fill="none" stroke-linejoin="miter" d="M 13.510306 13.582424 L 14.362242 13.559394 C 14.873219 13.561726 15.190101 13.714005 15.308235 14.022173 C 15.426369 14.330341 15.501704 14.772734 15.532556 15.357621 C 15.530224 15.868598 15.509059 16.268976 15.466734 16.561727 C 15.421437 16.852152 15.304587 17.062584 15.115537 17.187726 C 14.927132 17.318166 14.627373 17.39496 14.20928 17.427019 C 13.881886 17.453418 13.404234 17.481973 12.780977 17.506743 C 12.160047 17.528542 11.455397 17.547089 10.667028 17.562384 C 9.883956 17.577034 9.073109 17.584313 8.239783 17.583575 C 7.406457 17.582837 6.611502 17.588182 5.843677 17.595601 C 5.08115 17.602376 4.401698 17.607105 3.807646 17.606818 C 3.215921 17.603561 2.772772 17.606415 2.474583 17.607757 C 1.992167 17.575071 1.640278 17.400173 1.415946 17.080737 C 1.193941 16.75833 1.090075 16.236085 1.104349 15.514002 C 1.160579 14.915831 1.28912 14.470132 1.482348 14.180522 C 1.677902 13.887941 1.995375 13.757923 2.423529 13.78646 L 2.874946 13.785288 L 2.787619 7.898754 L 1.91127 7.897875 C 1.370836 7.89644 1.006419 7.70694 0.817375 7.324076 C 0.631302 6.94354 0.57043 6.531641 0.633077 6.096648 C 0.645528 5.425857 0.72589 4.937639 0.866537 4.635612 C 1.010155 4.335911 1.319108 4.180052 1.80102 4.164417 L 14.680909 4.051295 C 15.099002 4.019235 15.363556 4.183257 15.478578 4.532122 C 15.591275 4.883957 15.655229 5.365365 15.671086 5.981643 C 15.609559 6.580459 15.519388 7.03224 15.39993 7.331688 C 15.280472 7.631137 14.993997 7.795013 14.543476 7.825643 L 13.642967 7.825017 Z M 8.763555 13.670829 L 8.834471 7.869866 L 7.573888 7.870049 L 7.624024 13.693912 Z M 8.763555 13.670829 " stroke="#ffffff" stroke-width="0.843244" stroke-opacity="1" stroke-miterlimit="4"/></svg>