<svg xmlns="http://www.w3.org/2000/svg" xmlns:xlink="http://www.w3.org/1999/xlink" width="40" zoomAndPan="magnify" viewBox="0 0 30 30.000001" height="40" preserveAspectRatio="xMidYMid meet" version="1.0"><defs><g/><clipPath id="2e865842bc"><path d="M 0.777344 0 L 29.515625 0 L 29.515625 29.03125 L 0.777344 29.03125 Z M 0.777344 0 " clip-rule="nonzero"/></clipPath><clipPath id="52067ef21e"><path d="M 2.226562 0 L 28.066406 0 C 28.867188 0 29.515625 0.648438 29.515625 1.453125 L 29.515625 27.582031 C 29.515625 28.382812 28.867188 29.03125 28.066406 29.03125 L 2.226562 29.03125 C 1.425781 29.03125 0.777344 28.382812 0.777344 27.582031 L 0.777344 1.453125 C 0.777344 0.648438 1.425781 0 2.226562 0 Z M 2.226562 0 " clip-rule="nonzero"/></clipPath></defs><g clip-path="url(#2e865842bc)"><g clip-path="url(#52067ef21e)"><path fill="#ffffff" d="M 0.777344 0 L 29.515625 0 L 29.515625 29.078125 L 0.777344 29.078125 Z M 0.777344 0 " fill-opacity="1" fill-rule="nonzero"/></g></g><g fill="#44769a" fill-opacity="1"><g transform="translate(5.129135, 24.174621)"><g><path d="M 11.875 -6.40625 L 11.875 -10.046875 L 11.8125 -10.046875 L 7.5 -9.921875 L 7.4375 -9.921875 L 7.4375 -6.296875 L 7.5 -6.296875 C 7.84375 -6.296875 8.164062 -6.300781 8.46875 -6.3125 C 8.769531 -6.320312 9.078125 -6.332031 9.390625 -6.34375 L 11.8125 -6.40625 Z M 14.96875 -1.609375 L 5 -1.453125 C 4.125 -1.453125 3.445312 -1.53125 2.96875 -1.6875 C 2.5 -1.84375 2.164062 -2.132812 1.96875 -2.5625 C 1.78125 -2.988281 1.664062 -3.59375 1.625 -4.375 L 1.515625 -17.875 C 1.515625 -18.601562 1.785156 -19.035156 2.328125 -19.171875 C 2.867188 -19.316406 3.5625 -19.390625 4.40625 -19.390625 C 4.914062 -19.390625 5.398438 -19.375 5.859375 -19.34375 C 6.316406 -19.320312 6.691406 -19.195312 6.984375 -18.96875 C 7.285156 -18.738281 7.4375 -18.335938 7.4375 -17.765625 L 7.5 -14.703125 L 7.546875 -14.703125 C 8.085938 -14.703125 8.554688 -14.703125 8.953125 -14.703125 C 9.359375 -14.703125 9.78125 -14.710938 10.21875 -14.734375 C 10.65625 -14.753906 11.1875 -14.773438 11.8125 -14.796875 L 11.875 -14.796875 C 11.851562 -15.398438 11.835938 -15.914062 11.828125 -16.34375 C 11.816406 -16.78125 11.8125 -17.289062 11.8125 -17.875 C 11.8125 -18.414062 11.941406 -18.800781 12.203125 -19.03125 C 12.460938 -19.257812 12.796875 -19.394531 13.203125 -19.4375 C 13.609375 -19.488281 14.03125 -19.515625 14.46875 -19.515625 C 14.96875 -19.515625 15.46875 -19.488281 15.96875 -19.4375 C 16.476562 -19.394531 16.898438 -19.253906 17.234375 -19.015625 C 17.566406 -18.773438 17.734375 -18.367188 17.734375 -17.796875 L 17.734375 -3.71875 C 17.734375 -3.257812 17.582031 -2.875 17.28125 -2.5625 C 16.988281 -2.25 16.628906 -2.007812 16.203125 -1.84375 C 15.773438 -1.6875 15.363281 -1.609375 14.96875 -1.609375 Z M 14.96875 -1.609375 "/></g></g></g></svg>