<svg xmlns="http://www.w3.org/2000/svg" xmlns:xlink="http://www.w3.org/1999/xlink" width="100" zoomAndPan="magnify" viewBox="0 0 75 37.5" height="50" preserveAspectRatio="xMidYMid meet" version="1.0"><defs><clipPath id="41dd781fd5"><path d="M 12.257812 0.734375 L 62.585938 0.734375 L 62.585938 36.691406 L 12.257812 36.691406 Z M 12.257812 0.734375 " clip-rule="nonzero"/></clipPath><clipPath id="460def4259"><path d="M 43 11 L 52 11 L 52 20 L 43 20 Z M 43 11 " clip-rule="nonzero"/></clipPath><clipPath id="79f6ee589a"><path d="M 44.21875 20.1875 L 42.875 12.90625 L 50.882812 11.433594 L 52.222656 18.710938 Z M 44.21875 20.1875 " clip-rule="nonzero"/></clipPath><clipPath id="995458ac24"><path d="M 44.21875 20.1875 L 42.875 12.90625 L 50.882812 11.433594 L 52.222656 18.710938 Z M 44.21875 20.1875 " clip-rule="nonzero"/></clipPath></defs><g clip-path="url(#41dd781fd5)"><path fill="#44769a" d="M 62.613281 33.125 C 62.25 33.785156 61.886719 34.445312 61.5 35.09375 C 61.671875 35.382812 61.550781 35.859375 61.164062 35.886719 C 57.667969 36.132812 54.167969 36.386719 50.671875 36.625 C 47.289062 36.855469 43.882812 37.003906 40.511719 36.578125 C 40.183594 36.539062 39.914062 36.132812 40.097656 35.820312 C 40.914062 34.46875 41.898438 33.28125 43.054688 32.242188 C 39.035156 31.3125 35.09375 30.027344 31.300781 28.398438 C 27.773438 26.886719 24.148438 25.164062 21.0625 22.855469 C 18.5 20.9375 16.078125 18.804688 13.703125 16.660156 C 12.703125 15.757812 12.269531 14.566406 13.214844 13.421875 C 14.230469 12.203125 15.46875 11.113281 16.566406 9.96875 C 17.78125 8.699219 18.960938 7.402344 20.121094 6.082031 C 21.65625 4.328125 23.101562 2.339844 25.15625 1.199219 C 25.226562 1.003906 25.515625 1 25.597656 1.164062 C 26.515625 0.792969 27.570312 0.425781 28.53125 0.628906 C 29.535156 0.84375 29.851562 1.636719 30.183594 2.507812 C 31.210938 5.199219 32.484375 7.792969 33.988281 10.25 C 35.984375 13.515625 38.398438 16.507812 41.128906 19.191406 C 42.070312 20.117188 43.035156 21.015625 44.054688 21.855469 C 44.582031 22.292969 45.113281 22.726562 45.671875 23.117188 C 46.613281 23.777344 47.492188 23.992188 48.601562 24.328125 C 48.730469 24.09375 48.859375 23.859375 49 23.628906 C 49.867188 22.199219 50.953125 20.921875 52.183594 19.792969 C 52.160156 19.617188 52.226562 19.4375 52.421875 19.339844 C 53.246094 18.929688 55.121094 17.472656 56.035156 18.386719 C 56.375 18.730469 56.4375 19.277344 56.542969 19.71875 C 56.757812 20.636719 56.988281 21.546875 57.25 22.449219 C 57.832031 24.488281 58.535156 26.492188 59.363281 28.445312 C 59.589844 28.976562 59.816406 29.535156 60.082031 30.074219 C 60.105469 30.089844 60.125 30.109375 60.132812 30.132812 C 60.140625 30.160156 60.144531 30.1875 60.148438 30.214844 C 60.667969 31.234375 61.335938 32.160156 62.417969 32.621094 C 62.625 32.707031 62.726562 32.921875 62.613281 33.125 Z M 59.269531 30.160156 C 58.832031 30.503906 58.324219 30.789062 57.828125 31.050781 C 57.960938 31.226562 58.097656 31.402344 58.234375 31.578125 C 58.519531 31.277344 58.800781 30.976562 59.09375 30.683594 C 59.195312 30.582031 59.289062 30.480469 59.386719 30.390625 C 59.347656 30.3125 59.308594 30.238281 59.269531 30.160156 Z M 58.703125 28.878906 C 58.394531 29.222656 57.863281 29.488281 57.523438 29.703125 C 57.375 29.796875 57.222656 29.894531 57.066406 29.976562 C 57.207031 30.1875 57.351562 30.390625 57.5 30.59375 C 57.789062 30.398438 58.074219 30.195312 58.351562 29.984375 C 58.554688 29.828125 58.757812 29.660156 58.96875 29.511719 C 58.875 29.300781 58.785156 29.089844 58.703125 28.878906 Z M 57.9375 26.882812 C 57.882812 26.746094 57.835938 26.605469 57.78125 26.464844 C 57.542969 26.667969 57.1875 26.792969 56.933594 26.933594 C 56.507812 27.171875 56.101562 27.429688 55.699219 27.699219 C 55.828125 27.941406 55.960938 28.183594 56.097656 28.421875 C 56.75 28.023438 57.382812 27.554688 58.058594 27.199219 C 58.019531 27.09375 57.976562 26.988281 57.9375 26.882812 Z M 57.300781 25.140625 C 56.640625 25.664062 55.816406 26.054688 55.074219 26.464844 C 55.21875 26.765625 55.363281 27.066406 55.519531 27.363281 C 55.875 27.097656 56.238281 26.839844 56.613281 26.605469 C 56.933594 26.402344 57.265625 26.167969 57.632812 26.066406 C 57.519531 25.761719 57.40625 25.449219 57.300781 25.140625 Z M 56.871094 23.859375 C 56.222656 24.457031 55.347656 24.867188 54.535156 25.25 C 54.65625 25.546875 54.785156 25.839844 54.917969 26.132812 C 55.628906 25.660156 56.398438 25.105469 57.191406 24.828125 C 57.082031 24.507812 56.976562 24.183594 56.871094 23.859375 Z M 56.457031 22.480469 C 56.171875 22.632812 55.867188 22.757812 55.578125 22.890625 C 55.023438 23.144531 54.492188 23.4375 53.972656 23.75 C 54.101562 24.121094 54.234375 24.488281 54.378906 24.851562 C 55.152344 24.332031 55.871094 23.695312 56.691406 23.28125 C 56.609375 23.015625 56.535156 22.75 56.457031 22.480469 Z M 56.28125 21.867188 C 56.242188 21.734375 56.210938 21.570312 56.179688 21.394531 C 55.835938 21.589844 55.453125 21.730469 55.097656 21.894531 C 54.597656 22.121094 54.097656 22.347656 53.601562 22.582031 C 53.675781 22.84375 53.757812 23.109375 53.84375 23.367188 C 54.585938 22.820312 55.414062 22.1875 56.285156 21.890625 C 56.285156 21.882812 56.28125 21.875 56.28125 21.867188 Z M 56.007812 20.425781 C 55.777344 20.59375 55.496094 20.714844 55.25 20.839844 C 54.632812 21.160156 54.03125 21.398438 53.355469 21.570312 C 53.34375 21.574219 53.335938 21.570312 53.324219 21.574219 C 53.378906 21.785156 53.429688 21.996094 53.488281 22.207031 C 54.320312 21.730469 55.1875 21.199219 56.097656 20.921875 C 56.070312 20.757812 56.039062 20.589844 56.007812 20.425781 Z M 55.703125 19.464844 C 55.378906 19.695312 54.980469 19.835938 54.640625 20.027344 C 54.140625 20.308594 53.648438 20.613281 53.167969 20.925781 C 53.191406 21.03125 53.21875 21.140625 53.242188 21.246094 C 53.253906 21.234375 53.265625 21.222656 53.277344 21.214844 C 53.796875 20.894531 54.339844 20.625 54.863281 20.316406 C 55.179688 20.128906 55.484375 19.867188 55.828125 19.75 C 55.792969 19.644531 55.75 19.546875 55.703125 19.464844 Z M 58.214844 27.609375 C 57.65625 28.078125 56.925781 28.402344 56.285156 28.734375 C 56.464844 29.035156 56.652344 29.335938 56.84375 29.632812 C 57.132812 29.4375 57.398438 29.144531 57.644531 28.949219 C 57.929688 28.730469 58.179688 28.5 58.503906 28.378906 C 58.402344 28.117188 58.308594 27.859375 58.214844 27.609375 Z M 59.695312 30.933594 C 59.679688 30.945312 59.664062 30.960938 59.648438 30.972656 C 59.285156 31.308594 58.90625 31.628906 58.535156 31.957031 C 58.679688 32.136719 58.828125 32.3125 58.980469 32.488281 C 59.167969 32.320312 59.34375 32.132812 59.496094 31.925781 C 59.640625 31.722656 59.738281 31.449219 59.910156 31.273438 C 59.835938 31.160156 59.765625 31.046875 59.695312 30.933594 Z M 59.53125 33.109375 C 59.71875 32.847656 59.890625 32.578125 60.042969 32.296875 C 60.085938 32.222656 60.121094 32.144531 60.15625 32.066406 C 60.09375 32.144531 60.03125 32.21875 59.972656 32.289062 C 59.78125 32.515625 59.5625 32.710938 59.328125 32.886719 C 59.394531 32.960938 59.460938 33.035156 59.53125 33.109375 Z M 60.5625 32.609375 C 60.359375 32.921875 60.132812 33.21875 59.886719 33.5 C 59.960938 33.578125 60.039062 33.652344 60.113281 33.730469 C 60.183594 33.410156 60.382812 33.0625 60.5 32.804688 C 60.5625 32.664062 60.664062 32.449219 60.808594 32.347656 C 60.792969 32.332031 60.777344 32.316406 60.761719 32.300781 C 60.699219 32.410156 60.625 32.515625 60.5625 32.609375 Z M 61.046875 34.644531 C 61.074219 34.597656 61.097656 34.546875 61.121094 34.496094 C 61.089844 34.542969 61.0625 34.585938 61.03125 34.628906 C 61.035156 34.636719 61.042969 34.640625 61.046875 34.644531 Z M 33.550781 17.625 C 34.542969 17.007812 35.46875 16.226562 36.515625 15.746094 C 36.695312 15.664062 36.859375 15.859375 36.730469 16.015625 C 36.046875 16.855469 34.859375 17.429688 33.832031 17.925781 C 34.078125 18.1875 34.332031 18.4375 34.585938 18.691406 C 35.414062 17.957031 36.386719 17.046875 37.449219 16.609375 C 37.167969 16.28125 36.890625 15.953125 36.621094 15.621094 C 36.480469 15.449219 36.347656 15.277344 36.210938 15.105469 C 35.511719 15.546875 34.78125 15.929688 34.105469 16.417969 C 33.734375 16.683594 33.367188 16.875 32.921875 16.9375 C 33.128906 17.171875 33.339844 17.398438 33.550781 17.625 Z M 47.703125 25.191406 C 47.699219 25.082031 47.691406 24.976562 47.6875 24.871094 C 47.664062 24.871094 47.636719 24.863281 47.609375 24.859375 C 47.628906 25.328125 47.53125 25.8125 47.441406 26.28125 C 47.5625 26.21875 47.660156 26.125 47.746094 25.996094 C 47.730469 25.730469 47.710938 25.460938 47.703125 25.191406 Z M 46.960938 25.625 C 46.871094 25.882812 46.761719 26.132812 46.667969 26.34375 C 46.792969 26.363281 46.902344 26.375 47.003906 26.375 C 46.988281 26.132812 46.964844 25.878906 46.960938 25.625 Z M 46.261719 26.226562 C 46.328125 25.808594 46.375 25.390625 46.417969 24.96875 C 46.4375 24.792969 46.441406 24.625 46.484375 24.484375 C 46.46875 24.472656 46.449219 24.464844 46.429688 24.457031 C 46.421875 24.683594 46.335938 24.898438 46.269531 25.136719 C 46.183594 25.464844 46.09375 25.789062 46.003906 26.117188 C 46.089844 26.152344 46.175781 26.191406 46.261719 26.226562 Z M 45.601562 25.9375 C 45.648438 25.683594 45.691406 25.429688 45.742188 25.175781 C 45.804688 24.839844 45.808594 24.496094 46.003906 24.226562 C 45.964844 24.207031 45.929688 24.1875 45.894531 24.164062 C 45.800781 24.433594 45.644531 24.6875 45.527344 24.941406 C 45.402344 25.210938 45.285156 25.484375 45.175781 25.757812 C 45.316406 25.816406 45.457031 25.882812 45.601562 25.9375 Z M 44.800781 25.601562 C 44.878906 25.300781 44.964844 25.003906 45.070312 24.707031 C 45.164062 24.429688 45.257812 24.121094 45.433594 23.878906 C 45.292969 23.789062 45.152344 23.695312 45.015625 23.601562 C 44.90625 23.839844 44.75 24.0625 44.628906 24.285156 C 44.445312 24.617188 44.277344 24.953125 44.117188 25.296875 C 44.34375 25.398438 44.570312 25.5 44.800781 25.601562 Z M 43.75 25.125 C 43.875 24.75 44.007812 24.382812 44.160156 24.019531 C 44.273438 23.757812 44.371094 23.480469 44.535156 23.261719 C 44.433594 23.1875 44.335938 23.113281 44.238281 23.039062 C 44.109375 23.300781 43.925781 23.550781 43.792969 23.777344 C 43.578125 24.136719 43.339844 24.472656 43.089844 24.804688 C 43.308594 24.914062 43.53125 25.019531 43.75 25.125 Z M 42.765625 24.636719 C 42.90625 24.351562 43.046875 24.066406 43.199219 23.789062 C 43.386719 23.4375 43.527344 23.007812 43.753906 22.660156 C 43.621094 22.554688 43.492188 22.453125 43.367188 22.347656 C 43.234375 22.699219 42.96875 23.023438 42.78125 23.324219 C 42.570312 23.65625 42.351562 23.980469 42.136719 24.308594 C 42.34375 24.421875 42.554688 24.527344 42.765625 24.636719 Z M 41.753906 24.089844 C 41.941406 23.722656 42.132812 23.359375 42.328125 22.996094 C 42.519531 22.640625 42.675781 22.277344 42.945312 22 C 42.808594 21.882812 42.671875 21.765625 42.535156 21.648438 C 42.378906 21.957031 42.160156 22.246094 41.960938 22.507812 C 41.65625 22.910156 41.328125 23.285156 40.980469 23.648438 C 41.234375 23.800781 41.492188 23.945312 41.753906 24.089844 Z M 40.652344 23.445312 C 40.984375 23.003906 41.289062 22.546875 41.582031 22.082031 C 41.75 21.8125 41.902344 21.527344 42.09375 21.273438 C 42 21.191406 41.90625 21.109375 41.8125 21.027344 C 41.613281 21.390625 41.289062 21.738281 41.058594 22.011719 C 40.738281 22.394531 40.378906 22.726562 39.992188 23.035156 C 40.210938 23.175781 40.429688 23.308594 40.652344 23.445312 Z M 39.765625 22.882812 C 40.101562 22.558594 40.414062 22.210938 40.703125 21.847656 C 40.988281 21.5 41.195312 21.078125 41.464844 20.722656 C 41.386719 20.652344 41.308594 20.582031 41.234375 20.511719 C 41.101562 20.707031 40.925781 20.824219 40.742188 20.984375 C 40.5 21.191406 40.292969 21.4375 40.070312 21.667969 C 39.777344 21.972656 39.476562 22.246094 39.125 22.453125 C 39.335938 22.597656 39.550781 22.742188 39.765625 22.882812 Z M 38.765625 22.203125 C 39.53125 21.625 39.960938 20.445312 40.890625 20.199219 C 40.804688 20.121094 40.71875 20.042969 40.632812 19.960938 C 40.617188 19.984375 40.597656 20.003906 40.574219 20.015625 C 40.109375 20.222656 39.628906 20.382812 39.183594 20.628906 C 38.714844 20.886719 38.292969 21.210938 37.882812 21.554688 C 38.175781 21.777344 38.46875 21.992188 38.765625 22.203125 Z M 37.683594 21.398438 C 38.367188 20.609375 39.382812 19.925781 40.414062 19.75 C 40.117188 19.464844 39.824219 19.175781 39.539062 18.882812 C 38.769531 19.632812 37.792969 20.304688 36.832031 20.722656 C 36.839844 20.730469 36.847656 20.738281 36.855469 20.746094 C 37.128906 20.96875 37.40625 21.183594 37.683594 21.398438 Z M 36.574219 20.5 C 37.003906 20.105469 37.507812 19.777344 37.980469 19.4375 C 38.394531 19.140625 38.800781 18.84375 39.226562 18.566406 C 39.027344 18.363281 38.835938 18.15625 38.640625 17.949219 C 38.367188 18.253906 38 18.496094 37.675781 18.726562 C 37.082031 19.148438 36.433594 19.5 35.773438 19.8125 C 36.035156 20.046875 36.304688 20.273438 36.574219 20.5 Z M 35.464844 19.523438 C 36 19.238281 36.515625 18.921875 37 18.546875 C 37.421875 18.21875 37.800781 17.816406 38.230469 17.496094 C 38.074219 17.324219 37.921875 17.15625 37.769531 16.984375 C 37.4375 17.21875 37.050781 17.394531 36.710938 17.609375 C 36.054688 18.015625 35.421875 18.441406 34.8125 18.917969 C 35.027344 19.125 35.246094 19.324219 35.464844 19.523438 Z M 32.695312 16.671875 C 32.722656 16.632812 32.761719 16.597656 32.8125 16.585938 C 33.585938 16.433594 34.144531 15.699219 34.789062 15.273438 C 35.140625 15.042969 35.507812 14.851562 35.898438 14.707031 C 35.746094 14.515625 35.601562 14.316406 35.457031 14.121094 C 34.554688 14.984375 33.195312 15.328125 32.160156 16.046875 C 32.335938 16.257812 32.515625 16.464844 32.695312 16.671875 Z M 31.925781 15.753906 C 32.910156 14.953125 34.097656 14.417969 35.191406 13.769531 C 34.925781 13.410156 34.667969 13.046875 34.414062 12.679688 C 33.570312 13.628906 32.078125 13.851562 31.074219 14.65625 C 31.351562 15.027344 31.632812 15.394531 31.925781 15.753906 Z M 30.875 14.386719 C 31.808594 13.503906 33.109375 13.054688 34.195312 12.359375 C 33.96875 12.023438 33.746094 11.691406 33.53125 11.351562 C 32.441406 12.03125 31.25 12.570312 30.105469 13.144531 C 30.066406 13.164062 30.035156 13.164062 30.007812 13.148438 C 30.289062 13.570312 30.578125 13.980469 30.875 14.386719 Z M 30.003906 12.878906 C 31.085938 12.234375 32.164062 11.550781 33.304688 11 C 33.070312 10.628906 32.84375 10.257812 32.621094 9.878906 C 32.613281 9.914062 32.59375 9.949219 32.566406 9.96875 C 31.550781 10.785156 30.367188 11.367188 29.1875 11.898438 C 29.441406 12.292969 29.695312 12.679688 29.941406 13.050781 C 29.929688 12.988281 29.945312 12.914062 30.003906 12.878906 Z M 29.035156 11.664062 C 29.050781 11.644531 29.070312 11.628906 29.089844 11.617188 C 30.257812 11.054688 31.339844 10.359375 32.464844 9.730469 C 32.488281 9.71875 32.507812 9.710938 32.523438 9.710938 C 32.417969 9.53125 32.3125 9.347656 32.210938 9.167969 C 31.078125 9.882812 29.902344 10.542969 28.683594 11.105469 C 28.800781 11.292969 28.917969 11.480469 29.035156 11.664062 Z M 28.519531 10.839844 C 29.652344 10.117188 30.855469 9.496094 32.078125 8.933594 C 31.898438 8.613281 31.726562 8.289062 31.554688 7.964844 C 30.433594 8.714844 29.167969 9.296875 27.992188 9.960938 C 28.164062 10.257812 28.339844 10.550781 28.519531 10.839844 Z M 27.785156 9.601562 C 28.902344 8.832031 30.082031 8.0625 31.34375 7.558594 C 31.21875 7.3125 31.09375 7.066406 30.972656 6.816406 C 29.71875 7.390625 28.460938 7.925781 27.246094 8.589844 C 27.246094 8.589844 27.242188 8.589844 27.238281 8.59375 C 27.414062 8.933594 27.597656 9.269531 27.785156 9.601562 Z M 27.082031 8.28125 C 28.203125 7.472656 29.441406 6.792969 30.765625 6.386719 C 30.566406 5.96875 30.371094 5.546875 30.183594 5.125 C 29.726562 5.5 29.21875 5.808594 28.675781 6.0625 C 27.960938 6.398438 27.152344 6.523438 26.457031 6.878906 C 26.644531 7.351562 26.855469 7.820312 27.082031 8.28125 Z M 26.332031 6.5625 C 26.871094 6.191406 27.519531 6.042969 28.117188 5.769531 C 28.78125 5.464844 29.386719 5.070312 29.980469 4.65625 C 29.882812 4.425781 29.785156 4.195312 29.6875 3.964844 C 29.070312 4.238281 28.585938 4.738281 27.996094 5.089844 C 27.398438 5.449219 26.746094 5.679688 26.074219 5.820312 C 26.152344 6.066406 26.238281 6.316406 26.332031 6.5625 Z M 25.566406 3.457031 C 25.589844 3.707031 25.625 3.953125 25.667969 4.203125 C 26.070312 3.871094 26.535156 3.621094 26.976562 3.355469 C 27.613281 2.972656 28.238281 2.53125 28.953125 2.308594 C 28.976562 2.300781 28.996094 2.296875 29.015625 2.296875 C 28.980469 2.238281 28.941406 2.183594 28.902344 2.132812 C 27.777344 2.550781 26.496094 2.757812 25.566406 3.457031 Z M 29.261719 2.785156 C 29.230469 2.816406 29.1875 2.839844 29.136719 2.855469 C 27.917969 3.21875 26.9375 4.15625 25.753906 4.625 C 25.808594 4.894531 25.875 5.160156 25.953125 5.425781 C 26.683594 5.085938 27.390625 4.683594 28.042969 4.207031 C 28.523438 3.855469 28.914062 3.484375 29.449219 3.292969 C 29.390625 3.125 29.328125 2.953125 29.261719 2.785156 Z M 25.523438 2.324219 C 25.515625 2.566406 25.519531 2.8125 25.535156 3.054688 C 26.054688 2.632812 26.65625 2.417969 27.304688 2.183594 C 27.699219 2.042969 28.09375 1.898438 28.496094 1.773438 C 28.363281 1.699219 28.21875 1.644531 28.046875 1.621094 C 27.265625 1.515625 26.261719 2 25.523438 2.324219 Z M 48.265625 24.867188 C 48.261719 24.914062 48.257812 24.964844 48.25 25.011719 C 48.277344 24.960938 48.304688 24.90625 48.328125 24.855469 C 48.308594 24.859375 48.289062 24.863281 48.265625 24.867188 Z M 48.867188 25.746094 C 48.625 26.269531 48.472656 27.019531 47.9375 27.328125 C 47.320312 27.683594 46.617188 27.324219 46.019531 27.101562 C 42.589844 25.816406 39.367188 23.960938 36.527344 21.648438 C 33.4375 19.128906 30.925781 16.097656 28.886719 12.679688 C 27.101562 9.6875 24.730469 6.058594 24.96875 2.414062 C 24.964844 2.410156 24.960938 2.410156 24.953125 2.40625 C 24.171875 3.625 23.074219 4.625 22.105469 5.710938 C 21.078125 6.859375 20.089844 8.035156 19.039062 9.160156 C 17.96875 10.304688 16.882812 11.429688 15.789062 12.550781 C 15.316406 13.039062 14.792969 13.503906 14.355469 14.023438 C 13.628906 14.890625 14.175781 15.421875 14.871094 16.042969 C 17.136719 18.0625 19.425781 20.082031 21.855469 21.902344 C 24.75 24.070312 28.144531 25.679688 31.449219 27.121094 C 35.65625 28.953125 40.019531 30.34375 44.492188 31.355469 C 45.027344 31.476562 45.0625 32.125 44.664062 32.421875 C 43.441406 33.335938 42.441406 34.367188 41.566406 35.589844 C 44.605469 35.917969 47.648438 35.796875 50.703125 35.597656 C 53.78125 35.394531 56.863281 35.179688 59.941406 34.972656 C 56.078125 31.148438 53.425781 26.277344 52.273438 20.960938 C 50.867188 22.34375 49.699219 23.949219 48.867188 25.746094 Z M 52.996094 20.105469 C 53.023438 20.230469 53.050781 20.359375 53.078125 20.488281 C 53.6875 19.976562 54.425781 19.417969 55.191406 19.144531 C 54.53125 19.105469 53.511719 19.796875 52.996094 20.105469 Z M 61.28125 32.730469 C 61.238281 32.886719 61.140625 33.046875 61.074219 33.160156 C 60.886719 33.472656 60.6875 33.792969 60.410156 34.035156 C 60.527344 34.148438 60.640625 34.261719 60.757812 34.375 C 60.835938 34.128906 60.921875 33.886719 61.019531 33.652344 C 61.136719 33.363281 61.230469 33.066406 61.402344 32.816406 C 61.359375 32.789062 61.320312 32.757812 61.28125 32.730469 Z M 61.28125 32.730469 " fill-opacity="1" fill-rule="nonzero"/></g><g clip-path="url(#460def4259)"><g clip-path="url(#79f6ee589a)"><g clip-path="url(#995458ac24)"><path fill="#44769a" d="M 49.578125 11.878906 C 49.90625 12.070312 50.097656 12.367188 50.238281 12.714844 C 50.578125 13.554688 50.953125 14.382812 51.296875 15.222656 C 51.410156 15.5 51.5 15.789062 51.570312 16.078125 C 51.636719 16.34375 51.53125 16.550781 51.335938 16.632812 C 51.132812 16.714844 50.894531 16.632812 50.773438 16.371094 C 50.578125 15.945312 50.421875 15.503906 50.242188 15.066406 C 49.972656 14.40625 49.683594 13.757812 49.433594 13.09375 C 49.285156 12.707031 49.265625 12.300781 49.433594 11.90625 Z M 43.9375 18.667969 C 44.171875 18.929688 44.449219 19.121094 44.796875 19.171875 C 45.695312 19.296875 46.597656 19.410156 47.5 19.507812 C 47.675781 19.527344 47.859375 19.507812 48.027344 19.453125 C 48.136719 19.417969 48.28125 19.289062 48.289062 19.191406 C 48.296875 19.074219 48.191406 18.9375 48.109375 18.832031 C 48.058594 18.773438 47.953125 18.75 47.867188 18.730469 C 46.839844 18.511719 45.816406 18.300781 44.761719 18.320312 C 44.480469 18.328125 44.199219 18.484375 43.917969 18.570312 Z M 45.683594 15.078125 C 46.3125 15.753906 46.921875 16.449219 47.71875 16.949219 C 47.910156 17.066406 48.066406 17.238281 48.25 17.375 C 48.410156 17.492188 48.574219 17.617188 48.757812 17.699219 C 48.917969 17.773438 49.097656 17.746094 49.210938 17.578125 C 49.316406 17.417969 49.273438 17.253906 49.15625 17.125 C 48.914062 16.855469 48.679688 16.570312 48.402344 16.339844 C 47.847656 15.878906 47.269531 15.445312 46.699219 15.003906 C 46.472656 14.832031 46.246094 14.660156 46.015625 14.496094 C 45.835938 14.371094 45.640625 14.277344 45.394531 14.347656 C 45.375 14.644531 45.5 14.875 45.683594 15.078125 Z M 45.683594 15.078125 " fill-opacity="1" fill-rule="nonzero"/></g></g></g></svg>