<svg xmlns="http://www.w3.org/2000/svg" xmlns:xlink="http://www.w3.org/1999/xlink" width="100" zoomAndPan="magnify" viewBox="0 0 75 37.5" height="50" preserveAspectRatio="xMidYMid meet" version="1.0"><defs><clipPath id="f557abc6ca"><path d="M 12.40625 0.734375 L 62.585938 0.734375 L 62.585938 36.691406 L 12.40625 36.691406 Z M 12.40625 0.734375 " clip-rule="nonzero"/></clipPath><clipPath id="7730e979d1"><path d="M 22 11 L 31 11 L 31 18 L 22 18 Z M 22 11 " clip-rule="nonzero"/></clipPath><clipPath id="3d91439e80"><path d="M 22.753906 18.707031 L 21.414062 11.425781 L 29.417969 9.953125 L 30.761719 17.230469 Z M 22.753906 18.707031 " clip-rule="nonzero"/></clipPath><clipPath id="7e61be7568"><path d="M 30.613281 17.257812 L 29.269531 9.980469 L 21.265625 11.453125 L 22.605469 18.734375 Z M 30.613281 17.257812 " clip-rule="nonzero"/></clipPath></defs><g clip-path="url(#f557abc6ca)"><path fill="#44769a" d="M 12.375 33.125 C 12.742188 33.785156 13.105469 34.445312 13.492188 35.09375 C 13.320312 35.382812 13.441406 35.859375 13.828125 35.886719 C 17.324219 36.132812 20.824219 36.386719 24.320312 36.625 C 27.703125 36.855469 31.109375 37.003906 34.480469 36.578125 C 34.808594 36.539062 35.078125 36.132812 34.890625 35.820312 C 34.078125 34.46875 33.09375 33.28125 31.9375 32.242188 C 35.957031 31.3125 39.898438 30.027344 43.691406 28.398438 C 47.21875 26.886719 50.839844 25.164062 53.925781 22.855469 C 56.492188 20.9375 58.914062 18.804688 61.289062 16.660156 C 62.289062 15.757812 62.722656 14.566406 61.773438 13.421875 C 60.761719 12.203125 59.523438 11.113281 58.425781 9.96875 C 57.210938 8.699219 56.03125 7.402344 54.871094 6.082031 C 53.335938 4.328125 51.886719 2.339844 49.835938 1.199219 C 49.765625 1.003906 49.472656 1 49.394531 1.164062 C 48.476562 0.792969 47.421875 0.425781 46.460938 0.628906 C 45.457031 0.84375 45.140625 1.636719 44.808594 2.507812 C 43.78125 5.199219 42.507812 7.792969 41.003906 10.25 C 39.007812 13.515625 36.59375 16.507812 33.863281 19.191406 C 32.921875 20.117188 31.957031 21.015625 30.9375 21.855469 C 30.410156 22.292969 29.878906 22.726562 29.316406 23.117188 C 28.375 23.777344 27.5 23.992188 26.390625 24.328125 C 26.261719 24.09375 26.132812 23.859375 25.992188 23.628906 C 25.125 22.199219 24.039062 20.921875 22.808594 19.792969 C 22.832031 19.617188 22.765625 19.4375 22.570312 19.339844 C 21.746094 18.929688 19.871094 17.472656 18.957031 18.386719 C 18.617188 18.730469 18.554688 19.277344 18.449219 19.71875 C 18.234375 20.636719 18.003906 21.546875 17.742188 22.449219 C 17.15625 24.488281 16.457031 26.492188 15.628906 28.445312 C 15.402344 28.976562 15.175781 29.535156 14.910156 30.074219 C 14.886719 30.089844 14.867188 30.109375 14.859375 30.132812 C 14.847656 30.160156 14.847656 30.1875 14.84375 30.214844 C 14.324219 31.234375 13.65625 32.160156 12.570312 32.621094 C 12.367188 32.707031 12.265625 32.921875 12.375 33.125 Z M 15.722656 30.160156 C 16.160156 30.503906 16.667969 30.789062 17.164062 31.050781 C 17.03125 31.226562 16.894531 31.402344 16.757812 31.578125 C 16.472656 31.277344 16.191406 30.976562 15.898438 30.683594 C 15.796875 30.582031 15.703125 30.480469 15.601562 30.390625 C 15.644531 30.3125 15.683594 30.238281 15.722656 30.160156 Z M 16.289062 28.878906 C 16.597656 29.222656 17.128906 29.488281 17.464844 29.703125 C 17.617188 29.796875 17.765625 29.894531 17.925781 29.976562 C 17.785156 30.1875 17.640625 30.390625 17.492188 30.59375 C 17.203125 30.398438 16.917969 30.195312 16.640625 29.984375 C 16.4375 29.828125 16.234375 29.660156 16.023438 29.511719 C 16.117188 29.300781 16.203125 29.089844 16.289062 28.878906 Z M 17.054688 26.882812 C 17.109375 26.746094 17.15625 26.605469 17.210938 26.464844 C 17.449219 26.667969 17.804688 26.792969 18.058594 26.933594 C 18.480469 27.171875 18.890625 27.429688 19.292969 27.699219 C 19.164062 27.941406 19.03125 28.183594 18.890625 28.421875 C 18.242188 28.023438 17.609375 27.554688 16.933594 27.199219 C 16.972656 27.09375 17.011719 26.988281 17.054688 26.882812 Z M 17.691406 25.140625 C 18.351562 25.664062 19.175781 26.054688 19.917969 26.464844 C 19.773438 26.765625 19.628906 27.066406 19.472656 27.363281 C 19.117188 27.097656 18.753906 26.839844 18.378906 26.605469 C 18.058594 26.402344 17.726562 26.167969 17.359375 26.066406 C 17.472656 25.761719 17.585938 25.449219 17.691406 25.140625 Z M 18.117188 23.859375 C 18.769531 24.457031 19.644531 24.867188 20.457031 25.25 C 20.335938 25.546875 20.207031 25.839844 20.074219 26.132812 C 19.363281 25.660156 18.59375 25.105469 17.796875 24.828125 C 17.910156 24.507812 18.015625 24.183594 18.117188 23.859375 Z M 18.535156 22.480469 C 18.820312 22.632812 19.125 22.757812 19.414062 22.890625 C 19.96875 23.144531 20.496094 23.4375 21.019531 23.75 C 20.890625 24.121094 20.753906 24.488281 20.613281 24.851562 C 19.839844 24.332031 19.121094 23.695312 18.300781 23.28125 C 18.382812 23.015625 18.457031 22.75 18.535156 22.480469 Z M 18.710938 21.867188 C 18.75 21.734375 18.78125 21.570312 18.8125 21.394531 C 19.15625 21.589844 19.539062 21.730469 19.894531 21.894531 C 20.394531 22.121094 20.894531 22.347656 21.390625 22.582031 C 21.3125 22.84375 21.234375 23.109375 21.148438 23.367188 C 20.40625 22.820312 19.578125 22.1875 18.707031 21.890625 C 18.707031 21.882812 18.710938 21.875 18.710938 21.867188 Z M 18.984375 20.425781 C 19.214844 20.59375 19.496094 20.714844 19.738281 20.839844 C 20.359375 21.160156 20.960938 21.398438 21.636719 21.570312 C 21.648438 21.574219 21.65625 21.570312 21.664062 21.574219 C 21.613281 21.785156 21.5625 21.996094 21.503906 22.207031 C 20.671875 21.730469 19.804688 21.199219 18.894531 20.921875 C 18.921875 20.757812 18.949219 20.589844 18.984375 20.425781 Z M 19.289062 19.464844 C 19.609375 19.695312 20.011719 19.835938 20.351562 20.027344 C 20.851562 20.308594 21.34375 20.613281 21.824219 20.925781 C 21.796875 21.03125 21.773438 21.140625 21.75 21.246094 C 21.738281 21.234375 21.726562 21.222656 21.714844 21.214844 C 21.195312 20.894531 20.652344 20.625 20.125 20.316406 C 19.8125 20.128906 19.507812 19.867188 19.164062 19.75 C 19.199219 19.644531 19.242188 19.546875 19.289062 19.464844 Z M 16.777344 27.609375 C 17.335938 28.078125 18.066406 28.402344 18.707031 28.734375 C 18.527344 29.035156 18.339844 29.335938 18.148438 29.632812 C 17.859375 29.4375 17.59375 29.144531 17.347656 28.949219 C 17.0625 28.730469 16.8125 28.5 16.488281 28.378906 C 16.589844 28.117188 16.683594 27.859375 16.777344 27.609375 Z M 15.296875 30.933594 C 15.3125 30.945312 15.328125 30.960938 15.34375 30.972656 C 15.707031 31.308594 16.085938 31.628906 16.457031 31.957031 C 16.3125 32.136719 16.164062 32.3125 16.011719 32.488281 C 15.820312 32.320312 15.648438 32.132812 15.496094 31.925781 C 15.347656 31.722656 15.253906 31.449219 15.082031 31.273438 C 15.15625 31.160156 15.226562 31.046875 15.296875 30.933594 Z M 15.460938 33.109375 C 15.273438 32.847656 15.101562 32.578125 14.945312 32.296875 C 14.90625 32.222656 14.871094 32.144531 14.835938 32.066406 C 14.898438 32.144531 14.960938 32.21875 15.019531 32.289062 C 15.210938 32.515625 15.429688 32.710938 15.664062 32.886719 C 15.597656 32.960938 15.527344 33.035156 15.460938 33.109375 Z M 14.429688 32.609375 C 14.632812 32.921875 14.859375 33.21875 15.105469 33.5 C 15.03125 33.578125 14.953125 33.652344 14.878906 33.730469 C 14.808594 33.410156 14.609375 33.0625 14.492188 32.804688 C 14.429688 32.664062 14.328125 32.449219 14.183594 32.347656 C 14.199219 32.332031 14.214844 32.316406 14.230469 32.300781 C 14.292969 32.410156 14.363281 32.515625 14.429688 32.609375 Z M 13.945312 34.644531 C 13.917969 34.597656 13.894531 34.546875 13.871094 34.496094 C 13.902344 34.542969 13.929688 34.585938 13.960938 34.628906 C 13.953125 34.636719 13.949219 34.640625 13.945312 34.644531 Z M 41.441406 17.625 C 40.449219 17.007812 39.523438 16.226562 38.472656 15.746094 C 38.296875 15.664062 38.132812 15.859375 38.261719 16.015625 C 38.945312 16.855469 40.132812 17.429688 41.160156 17.925781 C 40.914062 18.1875 40.660156 18.4375 40.40625 18.691406 C 39.578125 17.957031 38.605469 17.046875 37.542969 16.609375 C 37.824219 16.28125 38.101562 15.953125 38.371094 15.621094 C 38.507812 15.449219 38.644531 15.277344 38.78125 15.105469 C 39.480469 15.546875 40.210938 15.929688 40.886719 16.417969 C 41.257812 16.683594 41.625 16.875 42.066406 16.9375 C 41.863281 17.171875 41.652344 17.398438 41.441406 17.625 Z M 27.289062 25.191406 C 27.292969 25.082031 27.300781 24.976562 27.300781 24.871094 C 27.328125 24.871094 27.355469 24.863281 27.382812 24.859375 C 27.363281 25.328125 27.460938 25.8125 27.550781 26.28125 C 27.429688 26.21875 27.332031 26.125 27.242188 25.996094 C 27.261719 25.730469 27.28125 25.460938 27.289062 25.191406 Z M 28.03125 25.625 C 28.121094 25.882812 28.230469 26.132812 28.324219 26.34375 C 28.199219 26.363281 28.089844 26.375 27.988281 26.375 C 28.003906 26.132812 28.023438 25.878906 28.03125 25.625 Z M 28.730469 26.226562 C 28.664062 25.808594 28.617188 25.390625 28.574219 24.96875 C 28.554688 24.792969 28.550781 24.625 28.507812 24.484375 C 28.523438 24.472656 28.542969 24.464844 28.558594 24.457031 C 28.566406 24.683594 28.65625 24.898438 28.71875 25.136719 C 28.804688 25.464844 28.898438 25.789062 28.988281 26.117188 C 28.902344 26.152344 28.816406 26.191406 28.730469 26.226562 Z M 29.390625 25.9375 C 29.34375 25.683594 29.296875 25.429688 29.25 25.175781 C 29.1875 24.839844 29.179688 24.496094 28.988281 24.226562 C 29.027344 24.207031 29.0625 24.1875 29.097656 24.164062 C 29.191406 24.433594 29.347656 24.6875 29.464844 24.941406 C 29.589844 25.210938 29.707031 25.484375 29.816406 25.757812 C 29.675781 25.816406 29.535156 25.882812 29.390625 25.9375 Z M 30.191406 25.601562 C 30.113281 25.300781 30.027344 25.003906 29.921875 24.707031 C 29.828125 24.429688 29.730469 24.121094 29.558594 23.878906 C 29.699219 23.789062 29.839844 23.695312 29.976562 23.601562 C 30.085938 23.839844 30.242188 24.0625 30.363281 24.285156 C 30.542969 24.617188 30.714844 24.953125 30.875 25.296875 C 30.648438 25.398438 30.417969 25.5 30.191406 25.601562 Z M 31.238281 25.125 C 31.117188 24.75 30.984375 24.382812 30.832031 24.019531 C 30.714844 23.757812 30.621094 23.480469 30.457031 23.261719 C 30.554688 23.1875 30.65625 23.113281 30.753906 23.039062 C 30.882812 23.300781 31.0625 23.550781 31.199219 23.777344 C 31.410156 24.136719 31.652344 24.472656 31.902344 24.804688 C 31.683594 24.914062 31.460938 25.019531 31.238281 25.125 Z M 32.226562 24.636719 C 32.085938 24.351562 31.941406 24.066406 31.792969 23.789062 C 31.605469 23.4375 31.464844 23.007812 31.238281 22.660156 C 31.367188 22.554688 31.5 22.453125 31.625 22.347656 C 31.757812 22.699219 32.019531 23.023438 32.210938 23.324219 C 32.421875 23.65625 32.636719 23.980469 32.855469 24.308594 C 32.648438 24.421875 32.4375 24.527344 32.226562 24.636719 Z M 33.238281 24.089844 C 33.050781 23.722656 32.859375 23.359375 32.664062 22.996094 C 32.472656 22.640625 32.316406 22.277344 32.046875 22 C 32.183594 21.882812 32.320312 21.765625 32.457031 21.648438 C 32.613281 21.957031 32.832031 22.246094 33.03125 22.507812 C 33.335938 22.910156 33.664062 23.285156 34.011719 23.648438 C 33.757812 23.800781 33.496094 23.945312 33.238281 24.089844 Z M 34.339844 23.445312 C 34.007812 23.003906 33.703125 22.546875 33.410156 22.082031 C 33.242188 21.8125 33.085938 21.527344 32.898438 21.273438 C 32.992188 21.191406 33.085938 21.109375 33.179688 21.027344 C 33.375 21.390625 33.699219 21.738281 33.933594 22.011719 C 34.253906 22.394531 34.613281 22.726562 35 23.035156 C 34.78125 23.175781 34.558594 23.308594 34.339844 23.445312 Z M 35.226562 22.882812 C 34.890625 22.558594 34.578125 22.210938 34.285156 21.847656 C 34.003906 21.5 33.796875 21.078125 33.527344 20.722656 C 33.605469 20.652344 33.679688 20.582031 33.757812 20.511719 C 33.890625 20.707031 34.066406 20.824219 34.25 20.984375 C 34.488281 21.191406 34.699219 21.4375 34.921875 21.667969 C 35.214844 21.972656 35.515625 22.246094 35.867188 22.453125 C 35.652344 22.597656 35.441406 22.742188 35.226562 22.882812 Z M 36.226562 22.203125 C 35.460938 21.625 35.027344 20.445312 34.101562 20.199219 C 34.1875 20.121094 34.273438 20.042969 34.359375 19.960938 C 34.371094 19.984375 34.390625 20.003906 34.417969 20.015625 C 34.882812 20.222656 35.363281 20.382812 35.808594 20.628906 C 36.273438 20.886719 36.699219 21.210938 37.105469 21.554688 C 36.816406 21.777344 36.523438 21.992188 36.226562 22.203125 Z M 37.308594 21.398438 C 36.621094 20.609375 35.609375 19.925781 34.578125 19.75 C 34.875 19.464844 35.164062 19.175781 35.453125 18.882812 C 36.222656 19.632812 37.195312 20.304688 38.160156 20.722656 C 38.152344 20.730469 38.144531 20.738281 38.132812 20.746094 C 37.863281 20.96875 37.585938 21.183594 37.308594 21.398438 Z M 38.417969 20.5 C 37.988281 20.105469 37.484375 19.777344 37.011719 19.4375 C 36.597656 19.140625 36.1875 18.84375 35.765625 18.566406 C 35.964844 18.363281 36.15625 18.15625 36.351562 17.949219 C 36.625 18.253906 36.988281 18.496094 37.316406 18.726562 C 37.910156 19.148438 38.554688 19.5 39.21875 19.8125 C 38.957031 20.046875 38.6875 20.273438 38.417969 20.5 Z M 39.527344 19.523438 C 38.988281 19.238281 38.476562 18.921875 37.992188 18.546875 C 37.570312 18.21875 37.191406 17.816406 36.761719 17.496094 C 36.917969 17.324219 37.070312 17.15625 37.21875 16.984375 C 37.550781 17.21875 37.941406 17.394531 38.28125 17.609375 C 38.9375 18.015625 39.570312 18.441406 40.179688 18.917969 C 39.964844 19.125 39.746094 19.324219 39.527344 19.523438 Z M 42.296875 16.671875 C 42.269531 16.632812 42.230469 16.597656 42.179688 16.585938 C 41.40625 16.433594 40.847656 15.699219 40.203125 15.273438 C 39.851562 15.042969 39.484375 14.851562 39.09375 14.707031 C 39.246094 14.515625 39.390625 14.316406 39.535156 14.121094 C 40.4375 14.984375 41.792969 15.328125 42.832031 16.046875 C 42.65625 16.257812 42.476562 16.464844 42.296875 16.671875 Z M 43.066406 15.753906 C 42.082031 14.953125 40.894531 14.417969 39.800781 13.769531 C 40.066406 13.410156 40.324219 13.046875 40.578125 12.679688 C 41.421875 13.628906 42.914062 13.851562 43.917969 14.65625 C 43.640625 15.027344 43.359375 15.394531 43.066406 15.753906 Z M 44.117188 14.386719 C 43.179688 13.503906 41.882812 13.054688 40.796875 12.359375 C 41.023438 12.023438 41.242188 11.691406 41.460938 11.351562 C 42.550781 12.03125 43.742188 12.570312 44.886719 13.144531 C 44.921875 13.164062 44.957031 13.164062 44.984375 13.148438 C 44.703125 13.570312 44.414062 13.980469 44.117188 14.386719 Z M 44.988281 12.878906 C 43.90625 12.234375 42.824219 11.550781 41.6875 11 C 41.921875 10.628906 42.148438 10.257812 42.371094 9.878906 C 42.378906 9.914062 42.398438 9.949219 42.425781 9.96875 C 43.441406 10.785156 44.625 11.367188 45.804688 11.898438 C 45.550781 12.292969 45.296875 12.679688 45.050781 13.050781 C 45.0625 12.988281 45.046875 12.914062 44.988281 12.878906 Z M 45.957031 11.664062 C 45.941406 11.644531 45.921875 11.628906 45.898438 11.617188 C 44.734375 11.054688 43.652344 10.359375 42.527344 9.730469 C 42.503906 9.71875 42.484375 9.710938 42.46875 9.710938 C 42.574219 9.53125 42.675781 9.347656 42.78125 9.167969 C 43.914062 9.882812 45.089844 10.542969 46.308594 11.105469 C 46.191406 11.292969 46.074219 11.480469 45.957031 11.664062 Z M 46.472656 10.839844 C 45.335938 10.117188 44.136719 9.496094 42.914062 8.933594 C 43.09375 8.613281 43.265625 8.289062 43.4375 7.964844 C 44.558594 8.714844 45.824219 9.296875 47 9.960938 C 46.828125 10.257812 46.652344 10.550781 46.472656 10.839844 Z M 47.207031 9.601562 C 46.089844 8.832031 44.910156 8.0625 43.648438 7.558594 C 43.773438 7.3125 43.898438 7.066406 44.019531 6.816406 C 45.273438 7.390625 46.527344 7.925781 47.746094 8.589844 C 47.746094 8.589844 47.75 8.589844 47.75 8.59375 C 47.578125 8.933594 47.394531 9.269531 47.207031 9.601562 Z M 47.910156 8.28125 C 46.789062 7.472656 45.550781 6.792969 44.226562 6.386719 C 44.425781 5.96875 44.621094 5.546875 44.808594 5.125 C 45.261719 5.5 45.773438 5.808594 46.316406 6.0625 C 47.03125 6.398438 47.839844 6.523438 48.535156 6.878906 C 48.347656 7.351562 48.136719 7.820312 47.910156 8.28125 Z M 48.660156 6.5625 C 48.121094 6.191406 47.472656 6.042969 46.875 5.769531 C 46.210938 5.464844 45.605469 5.070312 45.011719 4.65625 C 45.109375 4.425781 45.207031 4.195312 45.304688 3.964844 C 45.921875 4.238281 46.40625 4.738281 46.996094 5.089844 C 47.59375 5.449219 48.242188 5.679688 48.917969 5.820312 C 48.839844 6.066406 48.753906 6.316406 48.660156 6.5625 Z M 49.425781 3.457031 C 49.398438 3.707031 49.367188 3.953125 49.324219 4.203125 C 48.921875 3.871094 48.457031 3.621094 48.015625 3.355469 C 47.375 2.972656 46.753906 2.53125 46.039062 2.308594 C 46.015625 2.300781 45.996094 2.296875 45.976562 2.296875 C 46.011719 2.238281 46.050781 2.183594 46.089844 2.132812 C 47.214844 2.550781 48.496094 2.757812 49.425781 3.457031 Z M 45.730469 2.785156 C 45.761719 2.816406 45.804688 2.839844 45.855469 2.855469 C 47.074219 3.21875 48.054688 4.15625 49.238281 4.625 C 49.183594 4.894531 49.113281 5.160156 49.039062 5.425781 C 48.308594 5.085938 47.597656 4.683594 46.949219 4.207031 C 46.46875 3.855469 46.078125 3.484375 45.542969 3.292969 C 45.601562 3.125 45.664062 2.953125 45.730469 2.785156 Z M 49.46875 2.324219 C 49.472656 2.566406 49.46875 2.8125 49.457031 3.054688 C 48.9375 2.632812 48.335938 2.417969 47.6875 2.183594 C 47.292969 2.042969 46.898438 1.898438 46.496094 1.773438 C 46.628906 1.699219 46.773438 1.644531 46.945312 1.621094 C 47.726562 1.515625 48.726562 2 49.46875 2.324219 Z M 26.722656 24.867188 C 26.730469 24.914062 26.734375 24.964844 26.738281 25.011719 C 26.714844 24.960938 26.6875 24.90625 26.664062 24.855469 C 26.683594 24.859375 26.703125 24.863281 26.722656 24.867188 Z M 26.125 25.746094 C 26.367188 26.269531 26.519531 27.019531 27.054688 27.328125 C 27.671875 27.683594 28.371094 27.324219 28.972656 27.101562 C 32.402344 25.816406 35.625 23.960938 38.460938 21.648438 C 41.550781 19.128906 44.066406 16.097656 46.105469 12.679688 C 47.890625 9.6875 50.261719 6.058594 50.023438 2.414062 C 50.027344 2.410156 50.03125 2.410156 50.039062 2.40625 C 50.816406 3.625 51.917969 4.625 52.886719 5.710938 C 53.910156 6.859375 54.902344 8.035156 55.953125 9.160156 C 57.023438 10.304688 58.109375 11.429688 59.199219 12.550781 C 59.675781 13.039062 60.199219 13.503906 60.636719 14.023438 C 61.363281 14.890625 60.816406 15.421875 60.117188 16.042969 C 57.855469 18.0625 55.566406 20.082031 53.136719 21.902344 C 50.242188 24.070312 46.84375 25.679688 43.542969 27.121094 C 39.335938 28.953125 34.972656 30.34375 30.5 31.355469 C 29.960938 31.476562 29.929688 32.125 30.328125 32.421875 C 31.546875 33.335938 32.550781 34.367188 33.425781 35.589844 C 30.386719 35.917969 27.34375 35.796875 24.289062 35.597656 C 21.210938 35.394531 18.128906 35.179688 15.050781 34.972656 C 18.914062 31.148438 21.566406 26.277344 22.71875 20.960938 C 24.125 22.34375 25.292969 23.949219 26.125 25.746094 Z M 21.996094 20.105469 C 21.96875 20.230469 21.941406 20.359375 21.914062 20.488281 C 21.304688 19.976562 20.5625 19.417969 19.800781 19.144531 C 20.460938 19.105469 21.476562 19.796875 21.996094 20.105469 Z M 13.710938 32.730469 C 13.753906 32.886719 13.851562 33.046875 13.917969 33.160156 C 14.105469 33.472656 14.300781 33.792969 14.578125 34.035156 C 14.464844 34.148438 14.351562 34.261719 14.234375 34.375 C 14.152344 34.128906 14.070312 33.886719 13.972656 33.652344 C 13.855469 33.363281 13.761719 33.066406 13.589844 32.816406 C 13.628906 32.789062 13.671875 32.757812 13.710938 32.730469 Z M 13.710938 32.730469 " fill-opacity="1" fill-rule="nonzero"/></g><g clip-path="url(#7730e979d1)"><g clip-path="url(#3d91439e80)"><g clip-path="url(#7e61be7568)"><path fill="#44769a" d="M 22.644531 11.40625 C 22.402344 11.703125 22.332031 12.046875 22.324219 12.425781 C 22.304688 13.332031 22.253906 14.238281 22.230469 15.144531 C 22.222656 15.445312 22.242188 15.742188 22.277344 16.039062 C 22.3125 16.3125 22.484375 16.46875 22.695312 16.472656 C 22.914062 16.476562 23.109375 16.316406 23.128906 16.03125 C 23.160156 15.5625 23.148438 15.09375 23.160156 14.621094 C 23.175781 13.910156 23.214844 13.199219 23.210938 12.488281 C 23.210938 12.078125 23.082031 11.691406 22.789062 11.382812 Z M 30.332031 15.738281 C 30.207031 16.066406 30.015625 16.347656 29.707031 16.515625 C 28.914062 16.953125 28.113281 17.378906 27.304688 17.796875 C 27.144531 17.875 26.96875 17.921875 26.792969 17.929688 C 26.675781 17.9375 26.496094 17.867188 26.453125 17.777344 C 26.402344 17.675781 26.453125 17.507812 26.496094 17.378906 C 26.519531 17.308594 26.609375 17.246094 26.683594 17.195312 C 27.5625 16.628906 28.449219 16.066406 29.4375 15.710938 C 29.703125 15.613281 30.019531 15.660156 30.316406 15.640625 Z M 27.417969 13.007812 C 27.074219 13.867188 26.753906 14.730469 26.1875 15.480469 C 26.050781 15.660156 25.964844 15.878906 25.84375 16.066406 C 25.734375 16.234375 25.625 16.410156 25.484375 16.550781 C 25.359375 16.679688 25.183594 16.71875 25.015625 16.597656 C 24.863281 16.488281 24.84375 16.320312 24.90625 16.160156 C 25.035156 15.820312 25.15625 15.46875 25.332031 15.15625 C 25.6875 14.527344 26.070312 13.914062 26.449219 13.300781 C 26.597656 13.058594 26.746094 12.816406 26.902344 12.582031 C 27.027344 12.398438 27.175781 12.242188 27.429688 12.222656 C 27.554688 12.492188 27.523438 12.753906 27.417969 13.007812 Z M 27.417969 13.007812 " fill-opacity="1" fill-rule="nonzero"/></g></g></g></svg>